HIERARCHY
ROOT Hips
{
  OFFSET -0.175509 95.577 0.164376
  CHANNELS 6 Xposition Yposition Zposition Zrotation Xrotation Yrotation
  JOINT Spine
  {
    OFFSET 0 9.92346 -1.22733
    CHANNELS 6 Xposition Yposition Zposition Zrotation Xrotation Yrotation
    JOINT Spine1
    {
      OFFSET -0.000138865 11.6454 -1.42234
      CHANNELS 6 Xposition Yposition Zposition Zrotation Xrotation Yrotation
      JOINT Spine2
      {
        OFFSET 9.14407e-005 13.3602 -1.62646
        CHANNELS 6 Xposition Yposition Zposition Zrotation Xrotation Yrotation
        JOINT Neck
        {
          OFFSET 2.52021e-005 15.0325 0.792905
          CHANNELS 6 Xposition Yposition Zposition Zrotation Xrotation Yrotation
          JOINT Head
          {
            OFFSET 0 10.3218 3.14243
            CHANNELS 6 Xposition Yposition Zposition Zrotation Xrotation Yrotation
            End Site
            {
              OFFSET 0.000154173 18.4747 6.6364
            }
          }
        }
        JOINT LeftShoulder
        {
          OFFSET 6.10582 9.11042 0.705551
          CHANNELS 6 Xposition Yposition Zposition Zrotation Xrotation Yrotation
          JOINT LeftArm
          {
            OFFSET 12.655 -0.265934 -2.60092
            CHANNELS 6 Xposition Yposition Zposition Zrotation Xrotation Yrotation
            JOINT LeftForeArm
            {
              OFFSET 27.4047 3.91267e-005 0
              CHANNELS 6 Xposition Yposition Zposition Zrotation Xrotation Yrotation
              JOINT LeftHand
              {
                OFFSET 27.6145 2.89518e-005 1.96466e-005
                CHANNELS 6 Xposition Yposition Zposition Zrotation Xrotation Yrotation
                JOINT LeftHandMiddle1
                {
                  OFFSET 12.7755 1.3342e-005 2.04185e-005
                  CHANNELS 6 Xposition Yposition Zposition Zrotation Xrotation Yrotation
                  JOINT LeftHandMiddle2
                  {
                    OFFSET 3.61397 0 0
                    CHANNELS 6 Xposition Yposition Zposition Zrotation Xrotation Yrotation
                    JOINT LeftHandMiddle3
                    {
                      OFFSET 3.45976 0 -2.64197e-005
                      CHANNELS 6 Xposition Yposition Zposition Zrotation Xrotation Yrotation
                      End Site
                      {
                        OFFSET 3.68019 0 3.27692e-005
                      }
                    }
                  }
                }
                JOINT LeftHandThumb1
                {
                  OFFSET 3.78881 -2.167 3.00309
                  CHANNELS 6 Xposition Yposition Zposition Zrotation Xrotation Yrotation
                  JOINT LeftHandThumb2
                  {
                    OFFSET 3.67544 -2.12201 2.12201
                    CHANNELS 6 Xposition Yposition Zposition Zrotation Xrotation Yrotation
                    JOINT LeftHandThumb3
                    {
                      OFFSET 3.39436 -1.95974 1.95979
                      CHANNELS 6 Xposition Yposition Zposition Zrotation Xrotation Yrotation
                      End Site
                      {
                        OFFSET 2.6794 -1.54694 1.54692
                      }
                    }
                  }
                }
                JOINT LeftHandIndex1
                {
                  OFFSET 12.2666 -0.231669 2.82206
                  CHANNELS 6 Xposition Yposition Zposition Zrotation Xrotation Yrotation
                  JOINT LeftHandIndex2
                  {
                    OFFSET 3.89197 0 3.87215e-005
                    CHANNELS 6 Xposition Yposition Zposition Zrotation Xrotation Yrotation
                    JOINT LeftHandIndex3
                    {
                      OFFSET 3.41516 0 0
                      CHANNELS 6 Xposition Yposition Zposition Zrotation Xrotation Yrotation
                      End Site
                      {
                        OFFSET 3.07799 0 0
                      }
                    }
                  }
                }
                JOINT LeftHandRing1
                {
                  OFFSET 12.147 0.00989498 -2.21663
                  CHANNELS 6 Xposition Yposition Zposition Zrotation Xrotation Yrotation
                  JOINT LeftHandRing2
                  {
                    OFFSET 3.60119 0 3.51122e-005
                    CHANNELS 6 Xposition Yposition Zposition Zrotation Xrotation Yrotation
                    JOINT LeftHandRing3
                    {
                      OFFSET 3.30732 0 -2.08933e-005
                      CHANNELS 6 Xposition Yposition Zposition Zrotation Xrotation Yrotation
                      End Site
                      {
                        OFFSET 3.66012 0 0
                      }
                    }
                  }
                }
                JOINT LeftHandPinky1
                {
                  OFFSET 10.9082 -0.226365 -4.72582
                  CHANNELS 6 Xposition Yposition Zposition Zrotation Xrotation Yrotation
                  JOINT LeftHandPinky2
                  {
                    OFFSET 4.13665 0 2.68984e-005
                    CHANNELS 6 Xposition Yposition Zposition Zrotation Xrotation Yrotation
                    JOINT LeftHandPinky3
                    {
                      OFFSET 2.59484 0 -3.6009e-005
                      CHANNELS 6 Xposition Yposition Zposition Zrotation Xrotation Yrotation
                      End Site
                      {
                        OFFSET 2.92387 0 1.87321e-005
                      }
                    }
                  }
                }
              }
            }
          }
        }
        JOINT RightShoulder
        {
          OFFSET -6.1057 9.11051 0.705563
          CHANNELS 6 Xposition Yposition Zposition Zrotation Xrotation Yrotation
          JOINT RightArm
          {
            OFFSET -12.655 -0.266021 -2.6009
            CHANNELS 6 Xposition Yposition Zposition Zrotation Xrotation Yrotation
            JOINT RightForeArm
            {
              OFFSET -27.4047 3.28841e-005 0
              CHANNELS 6 Xposition Yposition Zposition Zrotation Xrotation Yrotation
              JOINT RightHand
              {
                OFFSET -27.6145 2.26615e-005 1.83241e-005
                CHANNELS 6 Xposition Yposition Zposition Zrotation Xrotation Yrotation
                JOINT RightHandMiddle1
                {
                  OFFSET -12.7755 0 1.80116e-005
                  CHANNELS 6 Xposition Yposition Zposition Zrotation Xrotation Yrotation
                  JOINT RightHandMiddle2
                  {
                    OFFSET -3.61397 0 0
                    CHANNELS 6 Xposition Yposition Zposition Zrotation Xrotation Yrotation
                    JOINT RightHandMiddle3
                    {
                      OFFSET -3.45976 0 -2.64579e-005
                      CHANNELS 6 Xposition Yposition Zposition Zrotation Xrotation Yrotation
                      End Site
                      {
                        OFFSET -3.68019 0 3.25098e-005
                      }
                    }
                  }
                }
                JOINT RightHandThumb1
                {
                  OFFSET -3.78881 -2.167 3.00309
                  CHANNELS 6 Xposition Yposition Zposition Zrotation Xrotation Yrotation
                  JOINT RightHandThumb2
                  {
                    OFFSET -3.67544 -2.12201 2.12201
                    CHANNELS 6 Xposition Yposition Zposition Zrotation Xrotation Yrotation
                    JOINT RightHandThumb3
                    {
                      OFFSET -3.39436 -1.95975 1.95979
                      CHANNELS 6 Xposition Yposition Zposition Zrotation Xrotation Yrotation
                      End Site
                      {
                        OFFSET -2.6794 -1.54695 1.54692
                      }
                    }
                  }
                }
                JOINT RightHandIndex1
                {
                  OFFSET -12.2666 -0.231673 2.82206
                  CHANNELS 6 Xposition Yposition Zposition Zrotation Xrotation Yrotation
                  JOINT RightHandIndex2
                  {
                    OFFSET -3.89197 0 3.7513e-005
                    CHANNELS 6 Xposition Yposition Zposition Zrotation Xrotation Yrotation
                    JOINT RightHandIndex3
                    {
                      OFFSET -3.41516 0 0
                      CHANNELS 6 Xposition Yposition Zposition Zrotation Xrotation Yrotation
                      End Site
                      {
                        OFFSET -3.07799 0 0
                      }
                    }
                  }
                }
                JOINT RightHandRing1
                {
                  OFFSET -12.147 0.0098909 -2.21663
                  CHANNELS 6 Xposition Yposition Zposition Zrotation Xrotation Yrotation
                  JOINT RightHandRing2
                  {
                    OFFSET -3.60119 0 3.4867e-005
                    CHANNELS 6 Xposition Yposition Zposition Zrotation Xrotation Yrotation
                    JOINT RightHandRing3
                    {
                      OFFSET -3.30732 0 -2.11146e-005
                      CHANNELS 6 Xposition Yposition Zposition Zrotation Xrotation Yrotation
                      End Site
                      {
                        OFFSET -3.66012 0 0
                      }
                    }
                  }
                }
                JOINT RightHandPinky1
                {
                  OFFSET -10.9082 -0.226369 -4.72582
                  CHANNELS 6 Xposition Yposition Zposition Zrotation Xrotation Yrotation
                  JOINT RightHandPinky2
                  {
                    OFFSET -4.13665 0 2.56096e-005
                    CHANNELS 6 Xposition Yposition Zposition Zrotation Xrotation Yrotation
                    JOINT RightHandPinky3
                    {
                      OFFSET -2.59484 0 -3.66612e-005
                      CHANNELS 6 Xposition Yposition Zposition Zrotation Xrotation Yrotation
                      End Site
                      {
                        OFFSET -2.92387 0 1.86957e-005
                      }
                    }
                  }
                }
              }
            }
          }
        }
      }
    }
  }
  JOINT RightUpLeg
  {
    OFFSET -9.12445 -6.6564 -0.0553779
    CHANNELS 6 Xposition Yposition Zposition Zrotation Xrotation Yrotation
    JOINT RightLeg
    {
      OFFSET -0.24468 -40.5954 -0.514528
      CHANNELS 6 Xposition Yposition Zposition Zrotation Xrotation Yrotation
      JOINT RightFoot
      {
        OFFSET 0.244669 -42.0479 -2.06023
        CHANNELS 6 Xposition Yposition Zposition Zrotation Xrotation Yrotation
        JOINT RightToeBase
        {
          OFFSET -0.37336 -10.4922 12.6407
          CHANNELS 6 Xposition Yposition Zposition Zrotation Xrotation Yrotation
          End Site
          {
            OFFSET 0 0 9.99252
          }
        }
      }
    }
  }
  JOINT LeftUpLeg
  {
    OFFSET 9.12445 -6.6564 -0.0553779
    CHANNELS 6 Xposition Yposition Zposition Zrotation Xrotation Yrotation
    JOINT LeftLeg
    {
      OFFSET 0.24468 -40.5954 -0.517041
      CHANNELS 6 Xposition Yposition Zposition Zrotation Xrotation Yrotation
      JOINT LeftFoot
      {
        OFFSET -0.24467 -42.048 -2.05764
        CHANNELS 6 Xposition Yposition Zposition Zrotation Xrotation Yrotation
        JOINT LeftToeBase
        {
          OFFSET 0.37336 -10.4922 12.6407
          CHANNELS 6 Xposition Yposition Zposition Zrotation Xrotation Yrotation
          End Site
          {
            OFFSET 0 0 9.99252
          }
        }
      }
    }
  }
}
MOTION
Frames:	4
Frame Time:	0.0333333
-0.175511 95.5769 0.164374 1.29081 -3.97202 34.713 5.64832e-007 9.92346 -1.22733 3.97289 9.22503 12.0494 -0.000138865 11.6454 -1.42234 -8.039 0.791407 1.93262 9.14407e-005 13.3602 -1.62646 -8.03834 1.01344 1.84182 2.52021e-005 15.0325 0.792905 -7.53613 -5.34057 -6.87622 2.37075e-006 10.3218 3.14243 14.9323 -14.3819 -40.462 6.10582 9.11042 0.705551 2.76312 0.0749155 2.66596 12.655 -0.265934 -2.60092 -33.3921 58.2955 -7.15266 27.4047 3.91267e-005 6.58811e-006 1.71886e-005 -3.46317e-006 -80.1753 27.6145 2.89518e-005 1.96466e-005 27.9734 12.2251 -15.3896 12.7755 1.3342e-005 2.04185e-005 7.86527 -0.0650272 -0.945833 3.61397 2.66014e-006 2.46236e-006 -2.06758 -0.00450029 0.249357 3.45976 5.43247e-007 -2.64197e-005 -5.26541 -0.0291499 0.634266 3.78881 -2.167 3.00309 22.601 -0.80395 9.03701 3.67544 -2.12201 2.12201 1.04265 4.50784 11.9971 3.39436 -1.95974 1.95979 2.79593 -0.123905 4.24371 12.2666 -0.231669 2.82206 11.2728 -0.133365 -1.35117 3.89197 1.68687e-006 3.87215e-005 -6.16069e-005 4.97652e-006 8.4463e-007 3.41516 5.74911e-007 -8.77053e-006 -1.35097 -0.00191604 0.162941 12.147 0.00989498 -2.21663 3.66223 -0.014127 -0.441469 3.60119 1.51294e-006 3.51122e-005 -5.51645 -0.0320063 0.664439 3.30732 4.53174e-006 -2.08933e-005 -9.51994 -0.0951927 1.14316 10.9082 -0.226365 -4.72582 0.824015 0.017583 4.01635 4.13665 2.29995e-006 2.68984e-005 -8.84234 0.532952 -3.00528 2.59484 5.93904e-008 -3.6009e-005 -12.8706 -0.173679 1.53972 -6.1057 9.11051 0.705563 -17.8439 -0.50719 7.80007 -12.655 -0.266021 -2.6009 14.7263 10.3349 15.5826 -27.4047 3.28841e-005 5.27564e-006 -9.09374e-007 -5.56497e-006 15.6048 -27.6145 2.26615e-005 1.83241e-005 43.6648 36.59 -33.9977 -12.7755 8.94577e-006 1.80116e-005 27.0545 -0.764322 -3.17617 -3.61397 2.7565e-006 3.08034e-006 21.3754 -0.480304 -2.54469 -3.45976 -1.97218e-007 -2.64579e-005 22.575 -0.535097 -2.68034 -3.78881 -2.167 3.00309 -24.6191 -2.03927 -1.47018 -3.67544 -2.12201 2.12201 -0.644361 5.3804 -14.8871 -3.39436 -1.95975 1.95979 -3.28513 0.521517 -12.3477 -12.2666 -0.231673 2.82206 24.9814 -0.653385 -2.9489 -3.89197 -7.20555e-008 3.7513e-005 21.4738 -0.484716 -2.55586 -3.41516 2.52991e-007 -8.60584e-006 20.4261 -0.43908 -2.43657 -12.147 0.0098909 -2.21663 29.851 -0.926848 -3.47615 -3.60119 2.38565e-007 3.4867e-005 20.9277 -0.460632 -2.49379 -3.30732 3.76018e-006 -2.11146e-005 25.3111 -0.670477 -2.98531 -10.9082 -0.226369 -4.72582 32.3003 -1.08113 -3.73218 -4.13665 4.31063e-007 2.56096e-005 20.1837 -0.428776 -2.40884 -2.59484 -9.57149e-007 -3.66612e-005 27.6821 -0.799489 -3.24415 -9.12445 -6.6564 -0.0553779 -11.3386 -10.866 -6.05029 -0.24468 -40.5954 -0.514528 6.84721 30.0039 -13.5416 0.244669 -42.0479 -2.06023 7.64162 -12.6132 -20.9432 -0.37336 -10.4922 12.6407 -1.58478e-006 -2.46742 1.16246e-006 9.12445 -6.6564 -0.0553779 9.20391 -14.6616 -2.67865 0.24468 -40.5954 -0.517041 2.11545 29.8789 -10.6319 -0.24467 -42.048 -2.05764 -8.79378 -13.0692 -12.1869 0.37336 -10.4922 12.6407 1.36344e-006 -0.742228 2.25766e-006 
-2.11739 94.8871 0.824616 2.24599 -4.7933 36.811 5.64832e-007 9.92346 -1.22733 4.05289 11.9943 12.605 -0.000138865 11.6454 -1.42234 -8.60353 1.35482 2.16206 9.14407e-005 13.3602 -1.62646 -8.59503 1.61617 2.0228 2.52021e-005 15.0325 0.792905 -8.13627 -6.52169 -7.79988 2.37075e-006 10.3218 3.14243 13.8814 -15.851 -44.319 6.10582 9.11042 0.705551 1.32565 0.107065 2.50925 12.655 -0.265934 -2.60092 -27.3013 52.1766 -10.8351 27.4047 3.91267e-005 6.58811e-006 3.1756e-006 -4.74949e-006 -79.1778 27.6145 2.89518e-005 1.96466e-005 28.9856 15.4888 -15.5299 12.7755 1.3342e-005 2.04185e-005 7.48702 -0.0589284 -0.900601 3.61397 2.66014e-006 2.46236e-006 -2.21447 -0.00515223 0.267071 3.45976 5.43247e-007 -2.64197e-005 -5.43518 -0.0310787 0.654662 3.78881 -2.167 3.00309 22.6053 -0.799993 9.06989 3.67544 -2.12201 2.12201 1.0438 4.50973 12.0136 3.39436 -1.95974 1.95979 2.79671 -0.122678 4.25192 12.2666 -0.231669 2.82206 10.9782 -0.126495 -1.31629 3.89197 1.68687e-006 3.87215e-005 -3.58184e-005 5.4994e-007 1.77181e-006 3.41516 5.74911e-007 -8.77053e-006 -1.52244 -0.00243875 0.183617 12.147 0.00989498 -2.21663 3.1771 -0.0106233 -0.383047 3.60119 1.51294e-006 3.51122e-005 -5.77612 -0.0350943 0.695605 3.30732 4.53174e-006 -2.08933e-005 -9.7416 -0.0996635 1.16954 10.9082 -0.226365 -4.72582 0.249595 0.0182443 4.08565 4.13665 2.29995e-006 2.68984e-005 -9.18482 0.550797 -2.96066 2.59484 5.93904e-008 -3.6009e-005 -13.1358 -0.180881 1.57089 -6.1057 9.11051 0.705563 -17.068 -0.392197 7.12201 -12.655 -0.266021 -2.6009 17.6574 -9.76815 12.8805 -27.4047 3.28841e-005 5.27564e-006 3.47841e-006 3.11428e-006 6.84447 -27.6145 2.26615e-005 1.83241e-005 38.615 36.3572 -45.3303 -12.7755 8.94577e-006 1.80116e-005 30.8804 -0.990346 -3.58454 -3.61397 2.7565e-006 3.08034e-006 22.0102 -0.508936 -2.61663 -3.45976 -1.97218e-007 -2.64579e-005 21.2889 -0.476496 -2.53487 -3.78881 -2.167 3.00309 -24.8403 -1.87599 -2.94084 -3.67544 -2.12201 2.12201 -0.688588 5.46622 -15.621 -3.39436 -1.95975 1.95979 -3.35536 0.660547 -13.2424 -12.2666 -0.231673 2.82206 28.2128 -0.829849 -3.30136 -3.89197 -7.20555e-008 3.7513e-005 20.6498 -0.448597 -2.4621 -3.41516 2.52991e-007 -8.60584e-006 20.0965 -0.425155 -2.39886 -12.147 0.0098909 -2.21663 34.4459 -1.22518 -3.95092 -3.60119 2.38565e-007 3.4867e-005 23.3145 -0.570219 -2.76339 -3.30732 3.76018e-006 -2.11146e-005 22.8843 -0.549646 -2.71513 -10.9082 -0.226369 -4.72582 37.5445 -1.44749 -4.25705 -4.13665 4.31063e-007 2.56096e-005 23.9122 -0.599425 -2.83018 -2.59484 -9.57149e-007 -3.66612e-005 24.3136 -0.619437 -2.87488 -9.12445 -6.6564 -0.0553779 -11.0472 -11.4168 -8.84168 -0.24468 -40.5954 -0.514528 6.66235 34.4014 -13.8581 0.244669 -42.0479 -2.06023 7.09193 -15.036 -19.4407 -0.37336 -10.4922 12.6407 9.17277e-007 -1.7626 3.63205e-006 9.12445 -6.6564 -0.0553779 9.43533 -15.0435 -0.347014 0.24468 -40.5954 -0.517041 5.83907 30.7873 -12.2968 -0.24467 -42.048 -2.05764 -11.7434 -12.6131 -16.3457 0.37336 -10.4922 12.6407 -4.20619e-006 -0.781062 -1.18504e-005 
-4.00484 93.8573 1.62349 2.75738 -5.89661 38.8835 5.64832e-007 9.92346 -1.22733 3.99623 14.2013 12.2623 -0.000138865 11.6454 -1.42234 -8.41385 1.59281 2.1953 9.14407e-005 13.3602 -1.62646 -8.40655 1.8515 2.02148 2.52021e-005 15.0325 0.792905 -8.31727 -7.1352 -8.3579 2.37075e-006 10.3218 3.14243 12.1354 -17.6755 -46.461 6.10582 9.11042 0.705551 1.11378 0.214301 1.33258 12.655 -0.265934 -2.60092 -28.1922 46.0935 -10.2994 27.4047 3.91267e-005 6.58811e-006 -2.41369e-006 1.4105e-005 -76.8609 27.6145 2.89518e-005 1.96466e-005 29.0639 16.2552 -13.6017 12.7755 1.3342e-005 2.04185e-005 7.22689 -0.054908 -0.869495 3.61397 2.66014e-006 2.46236e-006 -2.34662 -0.00579435 0.282999 3.45976 5.43247e-007 -2.64197e-005 -5.5889 -0.0328576 0.673126 3.78881 -2.167 3.00309 22.62 -0.78653 9.18218 3.67544 -2.12201 2.12201 1.04771 4.51628 12.0697 3.39436 -1.95974 1.95979 2.79935 -0.118541 4.27996 12.2666 -0.231669 2.82206 10.8024 -0.122496 -1.29548 3.89197 1.68687e-006 3.87215e-005 8.15475e-006 3.76082e-006 3.03274e-006 3.41516 5.74911e-007 -8.77053e-006 -1.68513 -0.00298304 0.203247 12.147 0.00989498 -2.21663 2.81007 -0.00830379 -0.338836 3.60119 1.51294e-006 3.51122e-005 -6.01849 -0.0381064 0.724677 3.30732 4.53174e-006 -2.08933e-005 -9.92645 -0.103477 1.19149 10.9082 -0.226365 -4.72582 -0.205963 0.0182709 4.14059 4.13665 2.29995e-006 2.68984e-005 -9.50981 0.56747 -2.91824 2.59484 5.93904e-008 -3.6009e-005 -13.3462 -0.186691 1.59561 -6.1057 9.11051 0.705563 -16.2781 -0.255195 5.41376 -12.655 -0.266021 -2.6009 18.6559 -22.0396 11.4409 -27.4047 3.28841e-005 5.27564e-006 -1.84537e-006 2.00132e-006 2.13941 -27.6145 2.26615e-005 1.83241e-005 18.8133 32.5253 -38.6603 -12.7755 8.94577e-006 1.80116e-005 32.5333 -1.09638 -3.75619 -3.61397 2.7565e-006 3.08034e-006 23.7324 -0.590563 -2.81012 -3.45976 -1.97218e-007 -2.64579e-005 20.4816 -0.4414 -2.4429 -3.78881 -2.167 3.00309 -24.747 -1.94593 -2.31732 -3.67544 -2.12201 2.12201 -0.669967 5.42976 -15.3098 -3.39436 -1.95975 1.95979 -3.32585 0.601461 -12.8631 -12.2666 -0.231673 2.82206 30.6468 -0.975775 -3.56005 -3.89197 -7.20555e-008 3.7513e-005 21.04 -0.465535 -2.50657 -3.41516 2.52991e-007 -8.60584e-006 19.4201 -0.39725 -2.32125 -12.147 0.0098909 -2.21663 35.143 -1.27375 -4.02082 -3.60119 2.38565e-007 3.4867e-005 26.6552 -0.742299 -3.1327 -3.30732 3.76018e-006 -2.11146e-005 21.9305 -0.505307 -2.6076 -10.9082 -0.226369 -4.72582 37.477 -1.44249 -4.25051 -4.13665 4.31063e-007 2.56096e-005 28.5793 -0.851118 -3.3407 -2.59484 -9.57149e-007 -3.66612e-005 23.1594 -0.562765 -2.74601 -9.12445 -6.6564 -0.0553779 -10.0114 -12.2216 -11.0298 -0.24468 -40.5954 -0.514528 6.54576 39.1531 -14.2483 0.244669 -42.0479 -2.06023 6.49487 -17.8602 -19.0148 -0.37336 -10.4922 12.6407 -7.3763e-008 -1.54305 -3.08736e-006 9.12445 -6.6564 -0.0553779 10.2156 -16.1576 0.969999 0.24468 -40.5954 -0.517041 9.40287 33.0761 -14.4673 -0.24467 -42.048 -2.05764 -14.3584 -13.0979 -18.5425 0.37336 -10.4922 12.6407 -2.0904e-006 -0.835971 -6.00195e-006 
-5.69704 92.6085 2.53222 2.93269 -7.70754 40.6601 5.64832e-007 9.92346 -1.22733 3.76383 15.974 10.8529 -0.000138865 11.6454 -1.42234 -7.39494 1.54166 1.99312 9.14407e-005 13.3602 -1.62646 -7.39606 1.75376 1.80668 2.52021e-005 15.0325 0.792905 -7.85479 -7.16285 -8.436 2.37075e-006 10.3218 3.14243 10.5172 -19.4073 -46.357 6.10582 9.11042 0.705551 1.15205 0.444015 -0.853226 12.655 -0.265934 -2.60092 -33.9921 40.691 -7.20696 27.4047 3.91267e-005 6.58811e-006 -8.683e-006 -5.44547e-006 -75.3249 27.6145 2.89518e-005 1.96466e-005 27.3162 9.4662 -6.90751 12.7755 1.3342e-005 2.04185e-005 7.11954 -0.0532973 -0.856638 3.61397 2.66014e-006 2.46236e-006 -2.45591 -0.00634804 0.296167 3.45976 5.43247e-007 -2.64197e-005 -5.72684 -0.0344941 0.689687 3.78881 -2.167 3.00309 22.6477 -0.760945 9.39452 3.67544 -2.12201 2.12201 1.05508 4.5286 12.1758 3.39436 -1.95974 1.95979 2.80433 -0.11067 4.33298 12.2666 -0.231669 2.82206 10.7856 -0.12211 -1.29349 3.89197 1.68687e-006 3.87215e-005 2.07342e-006 1.82413e-006 3.40859e-006 3.41516 5.74911e-007 -8.77053e-006 -1.82893 -0.00352321 0.220588 12.147 0.00989498 -2.21663 2.58932 -0.00705745 -0.312233 3.60119 1.51294e-006 3.51122e-005 -6.22851 -0.0407969 0.74988 3.30732 4.53174e-006 -2.08933e-005 -10.0852 -0.106804 1.21037 10.9082 -0.226365 -4.72582 -0.519465 0.0180291 4.17842 4.13665 2.29995e-006 2.68984e-005 -9.79705 0.582018 -2.8807 2.59484 5.93904e-008 -3.6009e-005 -13.5212 -0.191602 1.61615 -6.1057 9.11051 0.705563 -15.3031 -0.122897 3.38248 -12.655 -0.266021 -2.6009 18.5956 -27.2603 11.7819 -27.4047 3.28841e-005 5.27564e-006 2.03318e-006 -4.14656e-007 2.96959 -27.6145 2.26615e-005 1.83241e-005 -1.93029 23.8013 -25.1897 -12.7755 8.94577e-006 1.80116e-005 29.6049 -0.91196 -3.45005 -3.61397 2.7565e-006 3.08034e-006 25.7044 -0.691142 -3.02861 -3.45976 -1.97218e-007 -2.64579e-005 20.6079 -0.446808 -2.45734 -3.78881 -2.167 3.00309 -24.5115 -2.11554 -0.764721 -3.67544 -2.12201 2.12201 -0.62275 5.33944 -14.5352 -3.39436 -1.95975 1.95979 -3.25068 0.455272 -11.9187 -12.2666 -0.231673 2.82206 27.6713 -0.798894 -3.24298 -3.89197 -7.20555e-008 3.7513e-005 22.6499 -0.538585 -2.68879 -3.41516 2.52991e-007 -8.60584e-006 18.9259 -0.377458 -2.26434 -12.147 0.0098909 -2.21663 32.2491 -1.07779 -3.72689 -3.60119 2.38565e-007 3.4867e-005 29.1523 -0.884861 -3.40193 -3.30732 3.76018e-006 -2.11146e-005 22.7586 -0.5437 -2.70102 -10.9082 -0.226369 -4.72582 34.5917 -1.23528 -3.96559 -4.13665 4.31063e-007 2.56096e-005 31.5624 -1.03349 -3.65573 -2.59484 -9.57149e-007 -3.66612e-005 24.4806 -0.627833 -2.89341 -9.12445 -6.6564 -0.0553779 -8.19196 -12.5427 -11.8146 -0.24468 -40.5954 -0.514528 7.52581 43.375 -15.3486 0.244669 -42.0479 -2.06023 5.52271 -20.699 -19.7193 -0.37336 -10.4922 12.6407 -9.16488e-007 -1.53522 1.27593e-006 9.12445 -6.6564 -0.0553779 12.0817 -17.2941 1.27634 0.24468 -40.5954 -0.517041 12.0309 36.4185 -16.8725 -0.24467 -42.048 -2.05764 -16.3497 -14.4601 -18.9255 0.37336 -10.4922 12.6407 5.9738e-007 -0.950065 1.13953e-005 
